<svg width="24" height="24" viewBox="0 0 24 24" fill="none" xmlns="http://www.w3.org/2000/svg">
<path d="M18.8156 10.5H8.78437L12.675 6.77817C13.2328 6.19224 13.2328 5.24536 12.675 4.65942C12.1172 4.07349 11.2125 4.07349 10.65 4.65942L4.17188 10.9407C3.89062 11.2125 3.75 11.5829 3.75 11.9907V12.0094C3.75 12.4172 3.89062 12.7875 4.17188 13.0594L10.6453 19.3407C11.2078 19.9266 12.1125 19.9266 12.6703 19.3407C13.2281 18.7547 13.2281 17.8079 12.6703 17.2219L8.77969 13.5H18.8109C19.6031 13.5 20.2453 12.8297 20.2453 12C20.25 11.1563 19.6078 10.5 18.8156 10.5Z" fill="black"/>
</svg>
