<svg width="30" height="30" viewBox="0 0 30 30" fill="none" xmlns="http://www.w3.org/2000/svg">
<path d="M5.625 1.875C3.55664 1.875 1.875 3.55664 1.875 5.625V24.375C1.875 26.4434 3.55664 28.125 5.625 28.125H24.375C26.4434 28.125 28.125 26.4434 28.125 24.375V5.625C28.125 3.55664 26.4434 1.875 24.375 1.875H5.625ZM10.7812 13.5938H19.2188C19.998 13.5938 20.625 14.2207 20.625 15C20.625 15.7793 19.998 16.4062 19.2188 16.4062H10.7812C10.002 16.4062 9.375 15.7793 9.375 15C9.375 14.2207 10.002 13.5938 10.7812 13.5938Z" fill="#D689E5"/>
</svg>
