<svg width="107" height="40" viewBox="0 0 107 40" fill="none" xmlns="http://www.w3.org/2000/svg">
<path d="M9.968 25.728C10.288 26.256 10.632 26.8 11 27.36C11.384 27.904 11.76 28.432 12.128 28.944C12.496 29.456 12.848 29.928 13.184 30.36C13.52 30.792 13.816 31.152 14.072 31.44C14.344 31.712 14.448 31.936 14.384 32.112C14.336 32.272 14.136 32.432 13.784 32.592C13.576 32.704 13.328 32.8 13.04 32.88C12.768 32.96 12.496 33.016 12.224 33.048C11.808 33.16 11.384 33.184 10.952 33.12C10.52 33.056 10.088 32.792 9.656 32.328C9.48 32.136 9.24 31.872 8.936 31.536C8.632 31.2 8.296 30.816 7.928 30.384C7.576 29.952 7.2 29.496 6.8 29.016C6.416 28.52 6.056 28.032 5.72 27.552C5.512 28.608 5.328 29.576 5.168 30.456C5.008 31.336 4.864 32.136 4.736 32.856C4.736 33.096 4.68 33.256 4.568 33.336C4.456 33.432 4.296 33.472 4.088 33.456C3.88 33.456 3.624 33.408 3.32 33.312C3.032 33.232 2.712 33.144 2.36 33.048C1.64 32.856 1.12 32.616 0.8 32.328C0.48 32.04 0.336 31.6 0.368 31.008C0.384 30.448 0.432 29.72 0.512 28.824C0.592 27.912 0.696 26.912 0.824 25.824C0.952 24.736 1.096 23.6 1.256 22.416C1.416 21.216 1.584 20.048 1.76 18.912C1.936 17.76 2.112 16.672 2.288 15.648C2.464 14.624 2.632 13.736 2.792 12.984C2.92 12.536 3.112 12.264 3.368 12.168C3.624 12.056 3.984 12.072 4.448 12.216C4.96 12.344 5.504 12.536 6.08 12.792C6.672 13.048 7.184 13.32 7.616 13.608C7.856 13.768 8.048 13.912 8.192 14.04C8.336 14.152 8.44 14.272 8.504 14.4C8.568 14.528 8.592 14.672 8.576 14.832C8.56 14.976 8.52 15.152 8.456 15.36C8.216 16.176 7.976 17.112 7.736 18.168C7.496 19.208 7.24 20.352 6.968 21.6C7.64 20.864 8.368 20.08 9.152 19.248C9.936 18.4 10.696 17.568 11.432 16.752C12.184 15.936 12.88 15.16 13.52 14.424C14.176 13.688 14.712 13.064 15.128 12.552C15.4 12.2 15.656 12.024 15.896 12.024C16.168 12.024 16.472 12.168 16.808 12.456C17.16 12.76 17.448 13.096 17.672 13.464C17.912 13.832 18.136 14.232 18.344 14.664C18.472 15.016 18.512 15.36 18.464 15.696C18.432 16.032 18.264 16.448 17.96 16.944C17.592 17.552 17.096 18.232 16.472 18.984C15.864 19.72 15.192 20.48 14.456 21.264C13.736 22.032 12.984 22.8 12.2 23.568C11.416 24.336 10.672 25.056 9.968 25.728ZM18.9215 13.848C19.6095 13.672 20.3695 13.488 21.2015 13.296C22.0495 13.104 22.9295 12.928 23.8415 12.768C24.7695 12.608 25.7135 12.472 26.6735 12.36C27.6495 12.232 28.6175 12.152 29.5775 12.12C30.4895 12.104 31.0735 12.456 31.3295 13.176C31.5375 13.56 31.6815 13.912 31.7615 14.232C31.8415 14.536 31.9215 14.872 32.0015 15.24C32.0655 15.656 32.0335 15.936 31.9055 16.08C31.7775 16.224 31.4815 16.328 31.0175 16.392C30.0575 16.504 29.0655 16.616 28.0415 16.728C27.0175 16.84 25.9375 16.976 24.8015 17.136C24.5615 17.856 24.3375 18.608 24.1295 19.392C23.9215 20.16 23.6895 20.968 23.4335 21.816C23.9135 21.752 24.3935 21.704 24.8735 21.672C25.3535 21.64 25.8655 21.616 26.4095 21.6C26.8575 21.584 27.2095 21.624 27.4655 21.72C27.7215 21.816 27.9375 22.024 28.1135 22.344C28.3055 22.664 28.4495 22.984 28.5455 23.304C28.6575 23.608 28.7535 23.92 28.8335 24.24C28.9615 24.608 28.9695 24.856 28.8575 24.984C28.7615 25.112 28.4895 25.224 28.0415 25.32C27.0815 25.496 26.0975 25.664 25.0895 25.824C24.0975 25.984 23.1375 26.16 22.2095 26.352C22.0815 26.864 21.9615 27.352 21.8495 27.816C21.7375 28.264 21.6175 28.712 21.4895 29.16C22.2415 29.032 22.9535 28.928 23.6255 28.848C24.3135 28.768 25.0575 28.704 25.8575 28.656C26.3055 28.624 26.6495 28.656 26.8895 28.752C27.1455 28.848 27.3615 29.04 27.5375 29.328C27.7295 29.648 27.8735 29.952 27.9695 30.24C28.0815 30.512 28.2015 30.792 28.3295 31.08C28.4095 31.4 28.4095 31.624 28.3295 31.752C28.2495 31.864 27.9935 31.96 27.5615 32.04C26.5375 32.232 25.4975 32.432 24.4415 32.64C23.3855 32.848 22.3775 33.04 21.4175 33.216C20.7775 33.376 20.2895 33.408 19.9535 33.312C19.6335 33.232 19.3535 33.112 19.1135 32.952C18.8415 32.776 18.5775 32.6 18.3215 32.424C18.0815 32.232 17.7935 31.992 17.4575 31.704C17.1855 31.48 16.9775 31.216 16.8335 30.912C16.6735 30.608 16.6095 30.24 16.6415 29.808L18.9215 13.848ZM41.1971 25.152C41.5171 23.056 41.9091 20.992 42.3731 18.96C42.8531 16.928 43.3251 15.056 43.7891 13.344C43.9171 12.88 44.1091 12.592 44.3651 12.48C44.6371 12.368 45.0291 12.376 45.5411 12.504C45.7811 12.568 45.9971 12.624 46.1891 12.672C46.3811 12.72 46.5651 12.784 46.7411 12.864C46.9331 12.944 47.1331 13.04 47.3411 13.152C47.5491 13.264 47.7891 13.408 48.0611 13.584C48.5251 13.872 48.7811 14.168 48.8291 14.472C48.8931 14.76 48.8611 15.112 48.7331 15.528C48.3651 16.712 47.9811 18.056 47.5811 19.56C47.1811 21.064 46.7811 22.592 46.3811 24.144C45.9971 25.696 45.6211 27.216 45.2531 28.704C44.9011 30.176 44.5971 31.472 44.3411 32.592C44.2451 33.2 43.7651 33.408 42.9011 33.216C42.1651 33.072 41.4131 32.864 40.6451 32.592C39.9411 32.32 39.4451 31.84 39.1571 31.152C38.9331 30.656 38.7011 30.08 38.4611 29.424C38.2371 28.768 38.0051 28.064 37.7651 27.312C37.5251 26.544 37.2851 25.752 37.0451 24.936C36.8051 24.104 36.5811 23.272 36.3731 22.44C36.1971 23.432 36.0131 24.424 35.8211 25.416C35.6451 26.408 35.4691 27.36 35.2931 28.272C35.1331 29.168 34.9811 30.008 34.8371 30.792C34.7091 31.56 34.6051 32.232 34.5251 32.808C34.4611 33.08 34.3571 33.248 34.2131 33.312C34.0691 33.392 33.7891 33.376 33.3731 33.264C32.9891 33.168 32.5971 33.072 32.1971 32.976C31.8131 32.864 31.4371 32.696 31.0691 32.472C30.7171 32.296 30.4851 32.096 30.3731 31.872C30.2451 31.632 30.1971 31.304 30.2291 30.888C30.2611 30.456 30.3171 29.84 30.3971 29.04C30.4611 28.24 30.5571 27.336 30.6851 26.328C30.7971 25.304 30.9331 24.216 31.0931 23.064C31.2371 21.896 31.3971 20.736 31.5731 19.584C31.7491 18.432 31.9251 17.32 32.1011 16.248C32.2931 15.176 32.4771 14.224 32.6531 13.392C32.7651 12.912 32.9651 12.616 33.2531 12.504C33.5411 12.376 33.9331 12.376 34.4291 12.504C35.0211 12.68 35.5971 12.856 36.1571 13.032C36.7171 13.208 37.3011 13.44 37.9091 13.728C38.4051 13.936 38.7571 14.2 38.9651 14.52C39.1731 14.824 39.3251 15.28 39.4211 15.888C39.5011 16.352 39.6051 16.944 39.7331 17.664C39.8611 18.384 40.0051 19.168 40.1651 20.016C40.3251 20.848 40.4931 21.712 40.6691 22.608C40.8451 23.488 41.0211 24.336 41.1971 25.152ZM55.7422 33.2461C54.7031 33.2461 53.7031 33.0938 52.7422 32.7891C51.7812 32.4844 50.8633 32.0156 49.9883 31.3828V27.7383H51.7812L52.168 30.4219C52.6758 30.7344 53.2266 30.9766 53.8203 31.1484C54.4141 31.3203 55.0547 31.4062 55.7422 31.4062C56.5234 31.4062 57.1836 31.2891 57.7227 31.0547C58.2695 30.8125 58.6875 30.4805 58.9766 30.0586C59.2656 29.6367 59.4102 29.1445 59.4102 28.582C59.4102 28.0586 59.2852 27.5977 59.0352 27.1992C58.7852 26.8008 58.3711 26.4531 57.793 26.1562C57.2227 25.8516 56.4414 25.5859 55.4492 25.3594C54.2773 25.0859 53.2852 24.7227 52.4727 24.2695C51.668 23.8086 51.0547 23.2539 50.6328 22.6055C50.2188 21.9492 50.0117 21.1992 50.0117 20.3555C50.0117 19.4648 50.2461 18.668 50.7148 17.9648C51.1914 17.2617 51.8516 16.707 52.6953 16.3008C53.5391 15.8945 54.5234 15.6914 55.6484 15.6914C56.8438 15.6914 57.8984 15.875 58.8125 16.2422C59.7344 16.6016 60.4922 17.0391 61.0859 17.5547V20.9648H59.293L58.9062 18.5273C58.5547 18.2461 58.1172 18.0117 57.5938 17.8242C57.0703 17.6367 56.4219 17.543 55.6484 17.543C54.9922 17.543 54.4141 17.6602 53.9141 17.8945C53.4141 18.1211 53.0234 18.4414 52.7422 18.8555C52.4609 19.2695 52.3203 19.7578 52.3203 20.3203C52.3203 20.8125 52.4453 21.2422 52.6953 21.6094C52.9531 21.9766 53.3672 22.3008 53.9375 22.582C54.5156 22.8555 55.2852 23.1133 56.2461 23.3555C58.043 23.8008 59.4023 24.4609 60.3242 25.3359C61.2539 26.2031 61.7188 27.2773 61.7188 28.5586C61.7188 29.4727 61.4727 30.2852 60.9805 30.9961C60.4883 31.6992 59.793 32.25 58.8945 32.6484C58.0039 33.0469 56.9531 33.2461 55.7422 33.2461ZM68.1172 33.1992C67.1797 33.1992 66.4336 32.9258 65.8789 32.3789C65.332 31.8242 65.0586 30.9414 65.0586 29.7305V22.0312H63.0547V20.3203H65.0586V17.2617H67.3672V20.3203H70.1211V22.0312H67.3672V29.7305C67.3672 30.3398 67.4883 30.7891 67.7305 31.0781C67.9727 31.3672 68.2969 31.5117 68.7031 31.5117C68.9766 31.5117 69.2812 31.4883 69.6172 31.4414C69.9531 31.3867 70.2148 31.3398 70.4023 31.3008L70.7188 32.8125C70.3828 32.9141 69.9688 33.0039 69.4766 33.082C68.9922 33.1602 68.5391 33.1992 68.1172 33.1992ZM77.6914 33.2461C76.5195 33.2461 75.5078 32.9727 74.6562 32.4258C73.8125 31.8711 73.1602 31.1094 72.6992 30.1406C72.2383 29.1641 72.0078 28.0508 72.0078 26.8008V26.543C72.0078 25.293 72.2383 24.1836 72.6992 23.2148C73.1602 22.2383 73.8125 21.4727 74.6562 20.918C75.5078 20.3633 76.5117 20.0859 77.668 20.0859C78.8398 20.0859 79.8477 20.3633 80.6914 20.918C81.543 21.4727 82.1992 22.2344 82.6602 23.2031C83.1211 24.1719 83.3516 25.2852 83.3516 26.543V26.8008C83.3516 28.0586 83.1211 29.1758 82.6602 30.1523C82.1992 31.1211 81.5469 31.8789 80.7031 32.4258C79.8594 32.9727 78.8555 33.2461 77.6914 33.2461ZM77.6914 31.4414C78.4258 31.4414 79.0391 31.2422 79.5312 30.8438C80.0312 30.4375 80.4062 29.8867 80.6562 29.1914C80.9141 28.4883 81.043 27.6914 81.043 26.8008V26.543C81.043 25.6523 80.9141 24.8594 80.6562 24.1641C80.4062 23.4609 80.0312 22.9102 79.5312 22.5117C79.0312 22.1055 78.4102 21.9023 77.668 21.9023C76.9336 21.9023 76.3164 22.1055 75.8164 22.5117C75.3164 22.9102 74.9414 23.4609 74.6914 24.1641C74.4414 24.8594 74.3164 25.6523 74.3164 26.543V26.8008C74.3164 27.6914 74.4414 28.4883 74.6914 29.1914C74.9414 29.8867 75.3164 30.4375 75.8164 30.8438C76.3242 31.2422 76.9492 31.4414 77.6914 31.4414ZM85.1094 33V31.5234L87.0195 31.1953V22.1367L85.1094 21.8086V20.3203H89.082L89.2812 21.9375L89.3047 22.1602C89.6641 21.5117 90.1055 21.0039 90.6289 20.6367C91.1602 20.2695 91.7656 20.0859 92.4453 20.0859C92.6875 20.0859 92.9336 20.1094 93.1836 20.1562C93.4414 20.1953 93.625 20.2344 93.7344 20.2734L93.4297 22.418L91.8242 22.3242C91.2148 22.2852 90.7031 22.4258 90.2891 22.7461C89.875 23.0586 89.5547 23.4805 89.3281 24.0117V31.1953L91.2383 31.5234V33H85.1094ZM100.684 33.2461C99.5117 33.2461 98.4922 32.9805 97.625 32.4492C96.7578 31.9102 96.0859 31.1641 95.6094 30.2109C95.1406 29.2578 94.9062 28.1562 94.9062 26.9062V26.3906C94.9062 25.1875 95.1523 24.1133 95.6445 23.168C96.1445 22.2148 96.8047 21.4648 97.625 20.918C98.4531 20.3633 99.3555 20.0859 100.332 20.0859C101.473 20.0859 102.426 20.3203 103.191 20.7891C103.965 21.2578 104.547 21.918 104.938 22.7695C105.328 23.6133 105.523 24.6094 105.523 25.7578V27.1992H97.2969L97.2617 27.2578C97.2773 28.0703 97.418 28.793 97.6836 29.4258C97.957 30.0508 98.3477 30.543 98.8555 30.9023C99.3633 31.2617 99.9727 31.4414 100.684 31.4414C101.465 31.4414 102.148 31.332 102.734 31.1133C103.328 30.8867 103.84 30.5781 104.27 30.1875L105.172 31.6875C104.719 32.125 104.117 32.4961 103.367 32.8008C102.625 33.0977 101.73 33.2461 100.684 33.2461ZM97.3672 25.3945H103.215V25.0898C103.215 24.4805 103.105 23.9375 102.887 23.4609C102.676 22.9766 102.355 22.5977 101.926 22.3242C101.504 22.043 100.973 21.9023 100.332 21.9023C99.8164 21.9023 99.3477 22.0547 98.9258 22.3594C98.5039 22.6562 98.1562 23.0625 97.8828 23.5781C97.6094 24.0938 97.4297 24.6797 97.3438 25.3359L97.3672 25.3945Z" fill="white"/>
</svg>
