<?xml version="1.0" encoding="utf-8"?>
<!-- Generator: Adobe Illustrator 26.2.1, SVG Export Plug-In . SVG Version: 6.00 Build 0)  -->
<svg version="1.1" id="Layer_1" xmlns="http://www.w3.org/2000/svg" xmlns:xlink="http://www.w3.org/1999/xlink" x="0px" y="0px"
	 viewBox="0 0 107 21.8" style="enable-background:new 0 0 107 21.8;" xml:space="preserve">
<style type="text/css">
	.st0{fill:#852099;}
</style>
<path class="st0" d="M10,14.1c0.3,0.5,0.7,1.1,1,1.6c0.4,0.5,0.8,1.1,1.1,1.6c0.4,0.5,0.7,1,1.1,1.4c0.3,0.4,0.6,0.8,0.9,1.1
	c0.3,0.3,0.4,0.5,0.3,0.7c0,0.2-0.2,0.3-0.6,0.5c-0.2,0.1-0.5,0.2-0.7,0.3c-0.3,0.1-0.5,0.1-0.8,0.2c-0.4,0.1-0.8,0.1-1.3,0.1
	c-0.4-0.1-0.9-0.3-1.3-0.8c-0.2-0.2-0.4-0.5-0.7-0.8c-0.3-0.3-0.6-0.7-1-1.2c-0.4-0.4-0.7-0.9-1.1-1.4c-0.4-0.5-0.7-1-1.1-1.5
	c-0.2,1.1-0.4,2-0.6,2.9c-0.2,0.9-0.3,1.7-0.4,2.4c0,0.2-0.1,0.4-0.2,0.5c-0.1,0.1-0.3,0.1-0.5,0.1c-0.2,0-0.5,0-0.8-0.1
	c-0.3-0.1-0.6-0.2-1-0.3c-0.7-0.2-1.2-0.4-1.6-0.7c-0.3-0.3-0.5-0.7-0.4-1.3c0-0.6,0.1-1.3,0.1-2.2c0.1-0.9,0.2-1.9,0.3-3
	C1,13.1,1.1,12,1.3,10.8c0.2-1.2,0.3-2.4,0.5-3.5C1.9,6.1,2.1,5.1,2.3,4c0.2-1,0.3-1.9,0.5-2.7c0.1-0.4,0.3-0.7,0.6-0.8
	c0.3-0.1,0.6-0.1,1.1,0C5,0.7,5.5,0.9,6.1,1.2C6.7,1.4,7.2,1.7,7.6,2C7.9,2.2,8,2.3,8.2,2.4c0.1,0.1,0.2,0.2,0.3,0.4
	c0.1,0.1,0.1,0.3,0.1,0.4c0,0.1-0.1,0.3-0.1,0.5C8.2,4.6,8,5.5,7.7,6.6C7.5,7.6,7.2,8.7,7,10c0.7-0.7,1.4-1.5,2.2-2.4
	c0.8-0.8,1.5-1.7,2.3-2.5c0.8-0.8,1.4-1.6,2.1-2.3c0.7-0.7,1.2-1.4,1.6-1.9c0.3-0.4,0.5-0.5,0.8-0.5c0.3,0,0.6,0.1,0.9,0.4
	c0.4,0.3,0.6,0.6,0.9,1c0.2,0.4,0.5,0.8,0.7,1.2c0.1,0.4,0.2,0.7,0.1,1c0,0.3-0.2,0.8-0.5,1.2c-0.4,0.6-0.9,1.3-1.5,2
	c-0.6,0.7-1.3,1.5-2,2.3c-0.7,0.8-1.5,1.5-2.3,2.3C11.4,12.7,10.7,13.4,10,14.1z M18.9,2.2c0.7-0.2,1.4-0.4,2.3-0.6
	c0.8-0.2,1.7-0.4,2.6-0.5c0.9-0.2,1.9-0.3,2.8-0.4c1-0.1,1.9-0.2,2.9-0.2c0.9,0,1.5,0.3,1.8,1.1c0.2,0.4,0.4,0.7,0.4,1.1
	c0.1,0.3,0.2,0.6,0.2,1c0.1,0.4,0,0.7-0.1,0.8c-0.1,0.1-0.4,0.2-0.9,0.3c-1,0.1-2,0.2-3,0.3c-1,0.1-2.1,0.2-3.2,0.4
	c-0.2,0.7-0.5,1.5-0.7,2.3c-0.2,0.8-0.4,1.6-0.7,2.4c0.5-0.1,1-0.1,1.4-0.1c0.5,0,1-0.1,1.5-0.1c0.4,0,0.8,0,1.1,0.1
	c0.3,0.1,0.5,0.3,0.6,0.6c0.2,0.3,0.3,0.6,0.4,1c0.1,0.3,0.2,0.6,0.3,0.9c0.1,0.4,0.1,0.6,0,0.7c-0.1,0.1-0.4,0.2-0.8,0.3
	c-1,0.2-1.9,0.3-3,0.5c-1,0.2-2,0.3-2.9,0.5c-0.1,0.5-0.2,1-0.4,1.5c-0.1,0.4-0.2,0.9-0.4,1.3c0.8-0.1,1.5-0.2,2.1-0.3
	c0.7-0.1,1.4-0.1,2.2-0.2c0.4,0,0.8,0,1,0.1c0.3,0.1,0.5,0.3,0.6,0.6c0.2,0.3,0.3,0.6,0.4,0.9c0.1,0.3,0.2,0.6,0.4,0.8
	c0.1,0.3,0.1,0.5,0,0.7c-0.1,0.1-0.3,0.2-0.8,0.3c-1,0.2-2.1,0.4-3.1,0.6s-2.1,0.4-3,0.6c-0.6,0.2-1.1,0.2-1.5,0.1
	c-0.3-0.1-0.6-0.2-0.8-0.4c-0.3-0.2-0.5-0.4-0.8-0.5c-0.2-0.2-0.5-0.4-0.9-0.7c-0.3-0.2-0.5-0.5-0.6-0.8c-0.2-0.3-0.2-0.7-0.2-1.1
	L18.9,2.2z M41.2,13.5c0.3-2.1,0.7-4.2,1.2-6.2c0.5-2,1-3.9,1.4-5.6c0.1-0.5,0.3-0.8,0.6-0.9c0.3-0.1,0.7-0.1,1.2,0
	C45.8,1,46,1,46.2,1.1c0.2,0,0.4,0.1,0.6,0.2c0.2,0.1,0.4,0.2,0.6,0.3c0.2,0.1,0.4,0.3,0.7,0.4c0.5,0.3,0.7,0.6,0.8,0.9
	c0.1,0.3,0,0.6-0.1,1.1c-0.4,1.2-0.8,2.5-1.2,4c-0.4,1.5-0.8,3-1.2,4.6c-0.4,1.6-0.8,3.1-1.1,4.6c-0.4,1.5-0.7,2.8-0.9,3.9
	c-0.1,0.6-0.6,0.8-1.4,0.6c-0.7-0.1-1.5-0.4-2.3-0.6c-0.7-0.3-1.2-0.8-1.5-1.4c-0.2-0.5-0.5-1.1-0.7-1.7c-0.2-0.7-0.5-1.4-0.7-2.1
	c-0.2-0.8-0.5-1.6-0.7-2.4c-0.2-0.8-0.5-1.7-0.7-2.5c-0.2,1-0.4,2-0.6,3c-0.2,1-0.4,1.9-0.5,2.9c-0.2,0.9-0.3,1.7-0.5,2.5
	c-0.1,0.8-0.2,1.4-0.3,2c-0.1,0.3-0.2,0.4-0.3,0.5c-0.1,0.1-0.4,0.1-0.8,0c-0.4-0.1-0.8-0.2-1.2-0.3c-0.4-0.1-0.8-0.3-1.1-0.5
	c-0.4-0.2-0.6-0.4-0.7-0.6c-0.1-0.2-0.2-0.6-0.1-1c0-0.4,0.1-1,0.2-1.8c0.1-0.8,0.2-1.7,0.3-2.7c0.1-1,0.2-2.1,0.4-3.3
	c0.1-1.2,0.3-2.3,0.5-3.5c0.2-1.2,0.4-2.3,0.5-3.3c0.2-1.1,0.4-2,0.6-2.9C32.8,1.3,33,1,33.3,0.9c0.3-0.1,0.7-0.1,1.2,0
	c0.6,0.2,1.2,0.4,1.7,0.5c0.6,0.2,1.1,0.4,1.8,0.7c0.5,0.2,0.8,0.5,1.1,0.8c0.2,0.3,0.4,0.8,0.5,1.4c0.1,0.5,0.2,1.1,0.3,1.8
	c0.1,0.7,0.3,1.5,0.4,2.4c0.2,0.8,0.3,1.7,0.5,2.6C40.8,11.9,41,12.7,41.2,13.5z M55.7,21.6c-1,0-2-0.2-3-0.5
	c-1-0.3-1.9-0.8-2.8-1.4v-3.6h1.8l0.4,2.7c0.5,0.3,1.1,0.6,1.7,0.7c0.6,0.2,1.2,0.3,1.9,0.3c0.8,0,1.4-0.1,2-0.4
	c0.5-0.2,1-0.6,1.3-1c0.3-0.4,0.4-0.9,0.4-1.5c0-0.5-0.1-1-0.4-1.4c-0.2-0.4-0.7-0.7-1.2-1c-0.6-0.3-1.4-0.6-2.3-0.8
	c-1.2-0.3-2.2-0.6-3-1.1c-0.8-0.5-1.4-1-1.8-1.7C50.2,10.3,50,9.6,50,8.7c0-0.9,0.2-1.7,0.7-2.4c0.5-0.7,1.1-1.3,2-1.7
	c0.8-0.4,1.8-0.6,3-0.6c1.2,0,2.2,0.2,3.2,0.6c0.9,0.4,1.7,0.8,2.3,1.3v3.4h-1.8l-0.4-2.4c-0.4-0.3-0.8-0.5-1.3-0.7
	c-0.5-0.2-1.2-0.3-1.9-0.3c-0.7,0-1.2,0.1-1.7,0.4c-0.5,0.2-0.9,0.5-1.2,1c-0.3,0.4-0.4,0.9-0.4,1.5c0,0.5,0.1,0.9,0.4,1.3
	c0.3,0.4,0.7,0.7,1.2,1c0.6,0.3,1.3,0.5,2.3,0.8c1.8,0.4,3.2,1.1,4.1,2c0.9,0.9,1.4,1.9,1.4,3.2c0,0.9-0.2,1.7-0.7,2.4
	c-0.5,0.7-1.2,1.3-2.1,1.7C58,21.4,57,21.6,55.7,21.6z M68.1,21.6c-0.9,0-1.7-0.3-2.2-0.8c-0.5-0.6-0.8-1.4-0.8-2.6v-7.7h-2V8.7h2
	V5.6h2.3v3.1h2.8v1.7h-2.8v7.7c0,0.6,0.1,1.1,0.4,1.3c0.2,0.3,0.6,0.4,1,0.4c0.3,0,0.6,0,0.9-0.1c0.3-0.1,0.6-0.1,0.8-0.1l0.3,1.5
	c-0.3,0.1-0.8,0.2-1.2,0.3C69,21.5,68.5,21.6,68.1,21.6z M77.7,21.6c-1.2,0-2.2-0.3-3-0.8c-0.8-0.6-1.5-1.3-2-2.3
	c-0.5-1-0.7-2.1-0.7-3.3v-0.3c0-1.2,0.2-2.4,0.7-3.3c0.5-1,1.1-1.7,2-2.3c0.9-0.6,1.9-0.8,3-0.8c1.2,0,2.2,0.3,3,0.8
	c0.9,0.6,1.5,1.3,2,2.3c0.5,1,0.7,2.1,0.7,3.3v0.3c0,1.3-0.2,2.4-0.7,3.4c-0.5,1-1.1,1.7-2,2.3C79.9,21.4,78.9,21.6,77.7,21.6z
	 M77.7,19.8c0.7,0,1.3-0.2,1.8-0.6c0.5-0.4,0.9-1,1.1-1.7c0.3-0.7,0.4-1.5,0.4-2.4v-0.3c0-0.9-0.1-1.7-0.4-2.4
	c-0.2-0.7-0.6-1.3-1.1-1.7c-0.5-0.4-1.1-0.6-1.9-0.6c-0.7,0-1.4,0.2-1.9,0.6c-0.5,0.4-0.9,0.9-1.1,1.7c-0.2,0.7-0.4,1.5-0.4,2.4v0.3
	c0,0.9,0.1,1.7,0.4,2.4c0.2,0.7,0.6,1.2,1.1,1.7C76.3,19.6,76.9,19.8,77.7,19.8z M85.1,21.4v-1.5l1.9-0.3v-9.1l-1.9-0.3V8.7h4
	l0.2,1.6l0,0.2c0.4-0.6,0.8-1.2,1.3-1.5c0.5-0.4,1.1-0.6,1.8-0.6c0.2,0,0.5,0,0.7,0.1c0.3,0,0.4,0.1,0.6,0.1l-0.3,2.1l-1.6-0.1
	c-0.6,0-1.1,0.1-1.5,0.4c-0.4,0.3-0.7,0.7-1,1.3v7.2l1.9,0.3v1.5H85.1z M100.7,21.6c-1.2,0-2.2-0.3-3.1-0.8c-0.9-0.5-1.5-1.3-2-2.2
	c-0.5-1-0.7-2.1-0.7-3.3v-0.5c0-1.2,0.2-2.3,0.7-3.2c0.5-1,1.2-1.7,2-2.2c0.8-0.6,1.7-0.8,2.7-0.8c1.1,0,2.1,0.2,2.9,0.7
	c0.8,0.5,1.4,1.1,1.7,2c0.4,0.8,0.6,1.8,0.6,3v1.4h-8.2l0,0.1c0,0.8,0.2,1.5,0.4,2.2c0.3,0.6,0.7,1.1,1.2,1.5
	c0.5,0.4,1.1,0.5,1.8,0.5c0.8,0,1.5-0.1,2.1-0.3c0.6-0.2,1.1-0.5,1.5-0.9l0.9,1.5c-0.5,0.4-1.1,0.8-1.8,1.1
	C102.6,21.5,101.7,21.6,100.7,21.6z M97.4,13.8h5.8v-0.3c0-0.6-0.1-1.2-0.3-1.6c-0.2-0.5-0.5-0.9-1-1.1c-0.4-0.3-1-0.4-1.6-0.4
	c-0.5,0-1,0.2-1.4,0.5c-0.4,0.3-0.8,0.7-1,1.2C97.6,12.5,97.4,13.1,97.4,13.8L97.4,13.8z"/>
</svg>
