<svg width="20" height="20" viewBox="0 0 20 20" fill="none" xmlns="http://www.w3.org/2000/svg">
<g clip-path="url(#clip0_77_1447)">
<path d="M19.6875 10C19.6875 15.3516 15.3516 19.6875 10 19.6875C9 19.6875 8.03906 19.5352 7.13281 19.2539C7.52734 18.6094 8.11719 17.5547 8.33594 16.7148C8.45312 16.2617 8.9375 14.4102 8.9375 14.4102C9.25391 15.0117 10.1758 15.5234 11.1562 15.5234C14.0781 15.5234 16.1836 12.8359 16.1836 9.49609C16.1836 6.29688 13.5703 3.90234 10.2109 3.90234C6.03125 3.90234 3.80859 6.70703 3.80859 9.76562C3.80859 11.1875 4.56641 12.957 5.77344 13.5195C5.95703 13.6055 6.05469 13.5664 6.09766 13.3906C6.12891 13.2578 6.29297 12.5977 6.36719 12.293C6.39062 12.1953 6.37891 12.1094 6.30078 12.0156C5.90625 11.5273 5.58594 10.6367 5.58594 9.80469C5.58594 7.66797 7.20312 5.60156 9.96094 5.60156C12.3398 5.60156 14.0078 7.22266 14.0078 9.54297C14.0078 12.1641 12.6836 13.9805 10.9609 13.9805C10.0117 13.9805 9.29688 13.1953 9.52734 12.2305C9.80078 11.0781 10.3281 9.83594 10.3281 9.00391C10.3281 8.26172 9.92969 7.64062 9.10156 7.64062C8.12891 7.64062 7.34766 8.64453 7.34766 9.99219C7.34766 10.8516 7.63672 11.4297 7.63672 11.4297C7.63672 11.4297 6.67969 15.4844 6.50391 16.2422C6.30859 17.0781 6.38672 18.2578 6.46875 19.0234C2.86719 17.6133 0.3125 14.1055 0.3125 10C0.3125 4.64844 4.64844 0.3125 10 0.3125C15.3516 0.3125 19.6875 4.64844 19.6875 10Z" fill="#DE0217"/>
</g>
<defs>
<clipPath id="clip0_77_1447">
<rect width="20" height="20" fill="white"/>
</clipPath>
</defs>
</svg>
