<svg width="30" height="30" viewBox="0 0 30 30" fill="none" xmlns="http://www.w3.org/2000/svg">
<path d="M25.3125 1.875H4.6875C3.13477 1.875 1.875 3.13477 1.875 4.6875V25.3125C1.875 26.8652 3.13477 28.125 4.6875 28.125H25.3125C26.8652 28.125 28.125 26.8652 28.125 25.3125V4.6875C28.125 3.13477 26.8652 1.875 25.3125 1.875ZM23.4375 16.6406C23.4375 17.0273 23.1211 17.3438 22.7344 17.3438H17.3438V22.7344C17.3438 23.1211 17.0273 23.4375 16.6406 23.4375H13.3594C12.9727 23.4375 12.6562 23.1211 12.6562 22.7344V17.3438H7.26562C6.87891 17.3438 6.5625 17.0273 6.5625 16.6406V13.3594C6.5625 12.9727 6.87891 12.6562 7.26562 12.6562H12.6562V7.26562C12.6562 6.87891 12.9727 6.5625 13.3594 6.5625H16.6406C17.0273 6.5625 17.3438 6.87891 17.3438 7.26562V12.6562H22.7344C23.1211 12.6562 23.4375 12.9727 23.4375 13.3594V16.6406Z" fill="#D689E5"/>
</svg>
