<svg width="14" height="14" viewBox="0 0 14 14" fill="none" xmlns="http://www.w3.org/2000/svg">
<g clip-path="url(#clip0_121_494)">
<path d="M12.8 4.9L9.29996 4.4L7.69996 1.2C7.39996 0.6 6.59996 0.6 6.29996 1.2L4.69996 4.4L1.19996 4.9C0.499961 5 0.299961 5.8 0.699961 6.3L3.29996 8.8L2.69996 12.3C2.59996 12.9 3.29996 13.4 3.79996 13.1L6.99996 11.5L10.2 13.2C10.8 13.5 11.4 13 11.3 12.4L10.7 8.9L13.3 6.4C13.7 5.8 13.5 5 12.8 4.9ZM9.39996 8.4L9.99996 11.8L6.99996 10.2L3.99996 11.8L4.59996 8.4L2.09996 6L5.49996 5.5L6.99996 2.4L8.49996 5.5L11.9 6L9.39996 8.4Z" fill="#F6B03E"/>
</g>
<defs>
<clipPath id="clip0_121_494">
<rect width="14" height="14" fill="white"/>
</clipPath>
</defs>
</svg>
