<svg width="14" height="14" viewBox="0 0 14 14" fill="none" xmlns="http://www.w3.org/2000/svg">
<g clipPath="url(#clip0_77_1474)">
<path d="M12.8387 4.94896L9.28968 4.43096L7.70068 1.21096C7.41368 0.636961 6.59468 0.629961 6.30768 1.21096L4.71868 4.43096L1.16968 4.94896C0.532678 5.03996 0.280678 5.82396 0.742678 6.27896L3.31168 8.78496L2.70268 12.32C2.59068 12.957 3.26968 13.44 3.82968 13.139L7.00768 11.466L10.1857 13.139C10.7527 13.433 11.4247 12.957 11.3127 12.32L10.7037 8.78496L13.2727 6.27896C13.7277 5.82396 13.4757 5.03996 12.8387 4.94896ZM9.44368 8.36496L10.0177 11.732L7.00068 10.143L3.97668 11.732L4.55068 8.36496L2.10768 5.98496L5.48868 5.49496L7.00068 2.43596L8.51268 5.49496L11.8937 5.98496L9.44368 8.36496Z" fill="#F6B03E"/>
<path d="M6.99944 10.486V2.14197L4.99744 5.06797L1.27344 5.85897L3.92644 8.60997L3.47844 13.013L6.99944 10.486Z" fill="#F6B03E"/>
</g>
<defs>
<clipPath id="clip0_77_1474">
<rect width="14" height="14" fill="white"/>
</clipPath>
</defs>
</svg>
