<svg width="24" height="24" viewBox="0 0 24 24" fill="none" xmlns="http://www.w3.org/2000/svg">
<path d="M13.5002 18.8156L13.5002 8.78437L17.2221 12.675C17.808 13.2328 18.7549 13.2328 19.3408 12.675C19.9268 12.1172 19.9268 11.2125 19.3408 10.65L13.0595 4.17188C12.7877 3.89062 12.4173 3.75 12.0095 3.75L11.9908 3.75C11.583 3.75 11.2127 3.89062 10.9408 4.17188L4.65955 10.6453C4.07365 11.2078 4.07365 12.1125 4.65955 12.6703C5.24555 13.2281 6.19234 13.2281 6.77834 12.6703L10.5002 8.77969L10.5002 18.8109C10.5002 19.6031 11.1705 20.2453 12.0002 20.2453C12.8439 20.25 13.5002 19.6078 13.5002 18.8156Z" fill="black"/>
</svg>
